# xmcd
#
# Track frame offsets:
#	150
#	26862
#	41199
#	58836
#	82567
#	100654
#	119744
#	128409
#	138986
#
# Disc length: 2266 seconds
# Revision: 0
# Processed by: cddbd v1.5.2PL0 Copyright (c) Steve Scherf et al.
# Submitted via: dBpowerAMP V12.0
#
DISCID=7408d809
DTITLE=The Billy Bats - Lather Rinse Repeat
DYEAR=2012
DGENRE=Blues
TTITLE0=I Hear A Heartbeat
TTITLE1=Baby Fat
TTITLE2=The Nina, The Pinta, The Santa Maria
TTITLE3=The Black Lone Ranger
TTITLE4=One Hot Mother
TTITLE5=Photograph
TTITLE6=Do The Nod
TTITLE7=Liquid Diet
TTITLE8=Medusa Blues
EXTD=
EXTT0=
EXTT1=
EXTT2=
EXTT3=
EXTT4=
EXTT5=
EXTT6=
EXTT7=
EXTT8=
PLAYORDER=
